<svg width="24" height="24" viewBox="0 0 24 24" fill="none" xmlns="http://www.w3.org/2000/svg">
<path d="M5.29289 5.29298C5.68342 4.90246 6.31658 4.90246 6.70711 5.29298L12 10.5859L17.2929 5.29298C17.6834 4.90246 18.3166 4.90246 18.7071 5.29298C19.0976 5.68351 19.0976 6.31667 18.7071 6.7072L13.4142 12.0001L18.7071 17.293C19.0976 17.6835 19.0976 18.3167 18.7071 18.7072C18.3166 19.0977 17.6834 19.0977 17.2929 18.7072L12 13.4143L6.70711 18.7072C6.31658 19.0977 5.68342 19.0977 5.29289 18.7072C4.90237 18.3167 4.90237 17.6835 5.29289 17.293L10.5858 12.0001L5.29289 6.7072C4.90237 6.31667 4.90237 5.68351 5.29289 5.29298Z" fill="black"/>
</svg>
