<svg width="25" height="24" viewBox="0 0 25 24" fill="none" xmlns="http://www.w3.org/2000/svg">
<path d="M12.5 4C12.7652 4 13.0196 4.10536 13.2071 4.29289L17.2071 8.29289C17.5976 8.68342 17.5976 9.31658 17.2071 9.70711C16.8166 10.0976 16.1834 10.0976 15.7929 9.70711L12.5 6.41421L9.20711 9.70711C8.81658 10.0976 8.18342 10.0976 7.79289 9.70711C7.40237 9.31658 7.40237 8.68342 7.79289 8.29289L11.7929 4.29289C11.9804 4.10536 12.2348 4 12.5 4ZM7.79289 14.2929C8.18342 13.9024 8.81658 13.9024 9.20711 14.2929L12.5 17.5858L15.7929 14.2929C16.1834 13.9024 16.8166 13.9024 17.2071 14.2929C17.5976 14.6834 17.5976 15.3166 17.2071 15.7071L13.2071 19.7071C12.8166 20.0976 12.1834 20.0976 11.7929 19.7071L7.79289 15.7071C7.40237 15.3166 7.40237 14.6834 7.79289 14.2929Z" fill="#0D0D0D"/>
</svg>
